<svg width="20" height="20" viewBox="0 0 20 20" fill="none" xmlns="http://www.w3.org/2000/svg">
<path d="M18.6333 6.89169L18.3916 4.58335C18.0416 2.06669 16.9 1.04169 14.4583 1.04169H12.4916H11.2583H8.72495H7.49162H5.49162C3.04162 1.04169 1.90829 2.06669 1.54995 4.60835L1.32495 6.90002C1.24162 7.79169 1.48329 8.65835 2.00829 9.33335C2.64162 10.1584 3.61662 10.625 4.69995 10.625C5.74995 10.625 6.75829 10.1 7.39162 9.25835C7.95829 10.1 8.92495 10.625 9.99995 10.625C11.075 10.625 12.0166 10.125 12.5916 9.29169C13.2333 10.1167 14.225 10.625 15.2583 10.625C16.3666 10.625 17.3666 10.1334 17.9916 9.26669C18.4916 8.60002 18.7166 7.75835 18.6333 6.89169Z" fill="white"/>
<path d="M9.45843 13.8833C8.4001 13.9916 7.6001 14.8916 7.6001 15.9583V18.2416C7.6001 18.4666 7.78343 18.65 8.00843 18.65H11.9834C12.2084 18.65 12.3918 18.4666 12.3918 18.2416V16.25C12.4001 14.5083 11.3751 13.6833 9.45843 13.8833Z" fill="white"/>
<path d="M17.8083 12V14.4833C17.8083 16.7833 15.9417 18.65 13.6417 18.65C13.4167 18.65 13.2333 18.4667 13.2333 18.2417V16.25C13.2333 15.1833 12.9083 14.35 12.275 13.7833C11.7167 13.275 10.9583 13.025 10.0167 13.025C9.80832 13.025 9.59998 13.0333 9.37498 13.0583C7.89165 13.2083 6.76665 14.4583 6.76665 15.9583V18.2417C6.76665 18.4667 6.58332 18.65 6.35832 18.65C4.05832 18.65 2.19165 16.7833 2.19165 14.4833V12.0167C2.19165 11.4333 2.76665 11.0417 3.30832 11.2333C3.53332 11.3083 3.75832 11.3667 3.99165 11.4C4.09165 11.4167 4.19998 11.4333 4.29998 11.4333C4.43332 11.45 4.56665 11.4583 4.69998 11.4583C5.66665 11.4583 6.61665 11.1 7.36665 10.4833C8.08332 11.1 9.01665 11.4583 9.99998 11.4583C10.9917 11.4583 11.9083 11.1167 12.625 10.5C13.375 11.1083 14.3083 11.4583 15.2583 11.4583C15.4083 11.4583 15.5583 11.45 15.7 11.4333C15.8 11.425 15.8916 11.4167 15.9833 11.4C16.2416 11.3667 16.475 11.2917 16.7083 11.2167C17.25 11.0333 17.8083 11.4333 17.8083 12Z" fill="white"/>
</svg>
