<svg width="475" height="81" viewBox="0 0 475 81" fill="none" xmlns="http://www.w3.org/2000/svg">
<path d="M24.516 79.38V15.336H-1.70134e-05V1.62H63.72V15.336H39.204V79.38H24.516ZM90.8575 81C84.8815 81 79.6075 79.722 75.0355 77.166C70.4995 74.574 66.9355 71.028 64.3435 66.528C61.7875 61.992 60.5095 56.808 60.5095 50.976C60.5095 44.604 61.7695 39.06 64.2895 34.344C66.8095 29.628 70.2835 25.974 74.7115 23.382C79.1395 20.754 84.2335 19.44 89.9935 19.44C96.1135 19.44 101.316 20.88 105.6 23.76C109.884 26.64 113.052 30.69 115.104 35.91C117.156 41.13 117.876 47.268 117.264 54.324H102.738V48.924C102.738 42.984 101.784 38.718 99.8755 36.126C98.0035 33.498 94.9255 32.184 90.6415 32.184C85.6375 32.184 81.9475 33.714 79.5715 36.774C77.2315 39.798 76.0615 44.28 76.0615 50.22C76.0615 55.656 77.2315 59.868 79.5715 62.856C81.9475 65.808 85.4215 67.284 89.9935 67.284C92.8735 67.284 95.3395 66.654 97.3915 65.394C99.4435 64.134 101.01 62.316 102.09 59.94L116.778 64.152C114.582 69.48 111.108 73.62 106.356 76.572C101.64 79.524 96.4735 81 90.8575 81ZM71.5255 54.324V43.416H110.19V54.324H71.5255ZM129.457 79.38V21.06H142.417V35.316L141.013 33.48C141.769 31.464 142.777 29.628 144.037 27.972C145.297 26.316 146.845 24.948 148.681 23.868C150.085 23.004 151.615 22.338 153.271 21.87C154.927 21.366 156.637 21.06 158.401 20.952C160.165 20.808 161.929 20.844 163.693 21.06V34.776C162.073 34.272 160.183 34.11 158.023 34.29C155.899 34.434 153.973 34.92 152.245 35.748C150.517 36.54 149.059 37.602 147.871 38.934C146.683 40.23 145.783 41.778 145.171 43.578C144.559 45.342 144.253 47.34 144.253 49.572V79.38H129.457ZM213.708 79.38V51.84C213.708 50.508 213.636 48.816 213.492 46.764C213.348 44.676 212.898 42.588 212.142 40.5C211.386 38.412 210.144 36.666 208.416 35.262C206.724 33.858 204.312 33.156 201.18 33.156C199.92 33.156 198.57 33.354 197.13 33.75C195.69 34.146 194.34 34.92 193.08 36.072C191.82 37.188 190.776 38.844 189.948 41.04C189.156 43.236 188.76 46.152 188.76 49.788L180.336 45.792C180.336 41.184 181.272 36.864 183.144 32.832C185.016 28.8 187.824 25.542 191.568 23.058C195.348 20.574 200.1 19.332 205.824 19.332C210.396 19.332 214.122 20.106 217.002 21.654C219.882 23.202 222.114 25.164 223.698 27.54C225.318 29.916 226.47 32.4 227.154 34.992C227.838 37.548 228.252 39.888 228.396 42.012C228.54 44.136 228.612 45.684 228.612 46.656V79.38H213.708ZM173.856 79.38V21.06H186.924V40.392H188.76V79.38H173.856ZM258.825 81C254.649 81 251.103 80.208 248.187 78.624C245.307 77.004 243.111 74.862 241.599 72.198C240.123 69.498 239.385 66.528 239.385 63.288C239.385 60.588 239.799 58.122 240.627 55.89C241.455 53.658 242.787 51.696 244.623 50.004C246.495 48.276 248.997 46.836 252.129 45.684C254.289 44.892 256.863 44.19 259.851 43.578C262.839 42.966 266.223 42.39 270.003 41.85C273.783 41.274 277.941 40.644 282.477 39.96L277.185 42.876C277.185 39.42 276.357 36.882 274.701 35.262C273.045 33.642 270.273 32.832 266.385 32.832C264.225 32.832 261.975 33.354 259.635 34.398C257.295 35.442 255.657 37.296 254.721 39.96L241.437 35.748C242.913 30.924 245.685 27 249.753 23.976C253.821 20.952 259.365 19.44 266.385 19.44C271.533 19.44 276.105 20.232 280.101 21.816C284.097 23.4 287.121 26.136 289.173 30.024C290.325 32.184 291.009 34.344 291.225 36.504C291.441 38.664 291.549 41.076 291.549 43.74V79.38H278.697V67.392L280.533 69.876C277.689 73.8 274.611 76.644 271.299 78.408C268.023 80.136 263.865 81 258.825 81ZM261.957 69.444C264.657 69.444 266.925 68.976 268.761 68.04C270.633 67.068 272.109 65.97 273.189 64.746C274.305 63.522 275.061 62.496 275.457 61.668C276.213 60.084 276.645 58.248 276.753 56.16C276.897 54.036 276.969 52.272 276.969 50.868L281.289 51.948C276.933 52.668 273.405 53.28 270.705 53.784C268.005 54.252 265.827 54.684 264.171 55.08C262.515 55.476 261.057 55.908 259.797 56.376C258.357 56.952 257.187 57.582 256.287 58.266C255.423 58.914 254.775 59.634 254.343 60.426C253.947 61.218 253.749 62.1 253.749 63.072C253.749 64.404 254.073 65.556 254.721 66.528C255.405 67.464 256.359 68.184 257.583 68.688C258.807 69.192 260.265 69.444 261.957 69.444ZM366.393 81L343.713 58.428L352.785 49.356L375.357 71.928L366.393 81ZM338.961 81C331.185 81 324.471 79.308 318.819 75.924C313.203 72.54 308.865 67.806 305.805 61.722C302.781 55.638 301.269 48.564 301.269 40.5C301.269 32.436 302.781 25.362 305.805 19.278C308.865 13.194 313.203 8.46 318.819 5.076C324.471 1.692 331.185 3.33786e-06 338.961 3.33786e-06C346.737 3.33786e-06 353.433 1.692 359.049 5.076C364.701 8.46 369.039 13.194 372.063 19.278C375.123 25.362 376.653 32.436 376.653 40.5C376.653 48.564 375.123 55.638 372.063 61.722C369.039 67.806 364.701 72.54 359.049 75.924C353.433 79.308 346.737 81 338.961 81ZM338.961 67.176C343.893 67.248 347.997 66.186 351.273 63.99C354.549 61.794 356.997 58.68 358.617 54.648C360.273 50.616 361.101 45.9 361.101 40.5C361.101 35.1 360.273 30.42 358.617 26.46C356.997 22.5 354.549 19.422 351.273 17.226C347.997 15.03 343.893 13.896 338.961 13.824C334.029 13.752 329.925 14.814 326.649 17.01C323.373 19.206 320.907 22.32 319.251 26.352C317.631 30.384 316.821 35.1 316.821 40.5C316.821 45.9 317.631 50.58 319.251 54.54C320.907 58.5 323.373 61.578 326.649 63.774C329.925 65.97 334.029 67.104 338.961 67.176ZM388.513 12.96V3.33786e-06H403.201V12.96H388.513ZM388.513 79.38V21.06H403.201V79.38H388.513ZM459.134 79.38V51.84C459.134 50.508 459.062 48.816 458.918 46.764C458.774 44.676 458.324 42.588 457.568 40.5C456.812 38.412 455.57 36.666 453.842 35.262C452.15 33.858 449.738 33.156 446.606 33.156C445.346 33.156 443.996 33.354 442.556 33.75C441.116 34.146 439.766 34.92 438.506 36.072C437.246 37.188 436.202 38.844 435.374 41.04C434.582 43.236 434.186 46.152 434.186 49.788L425.762 45.792C425.762 41.184 426.698 36.864 428.57 32.832C430.442 28.8 433.25 25.542 436.994 23.058C440.774 20.574 445.526 19.332 451.25 19.332C455.822 19.332 459.548 20.106 462.428 21.654C465.308 23.202 467.54 25.164 469.124 27.54C470.744 29.916 471.896 32.4 472.58 34.992C473.264 37.548 473.678 39.888 473.822 42.012C473.966 44.136 474.038 45.684 474.038 46.656V79.38H459.134ZM419.282 79.38V21.06H432.35V40.392H434.186V79.38H419.282Z" fill="#120C0D"/>
</svg>
