<svg width="28" height="28" viewBox="0 0 28 28" fill="none" xmlns="http://www.w3.org/2000/svg">
<g clip-path="url(#clip0_9333_1094)">
<path d="M24.0568 9.85817C22.8318 4.46817 18.1301 2.0415 14.0001 2.0415C14.0001 2.0415 14.0001 2.0415 13.9884 2.0415C9.87011 2.0415 5.15678 4.4565 3.93178 9.8465C2.56678 15.8665 6.25345 20.9648 9.59011 24.1732C10.8268 25.3632 12.4134 25.9582 14.0001 25.9582C15.5868 25.9582 17.1734 25.3632 18.3984 24.1732C21.7351 20.9648 25.4218 15.8782 24.0568 9.85817ZM14.0001 15.7032C11.9701 15.7032 10.3251 14.0582 10.3251 12.0282C10.3251 9.99817 11.9701 8.35317 14.0001 8.35317C16.0301 8.35317 17.6751 9.99817 17.6751 12.0282C17.6751 14.0582 16.0301 15.7032 14.0001 15.7032Z" fill="white"/>
</g>
<defs>
<clipPath id="clip0_9333_1094">
<rect width="28" height="28" fill="white"/>
</clipPath>
</defs>
</svg>
