<svg width="28" height="28" viewBox="0 0 28 28" fill="none" xmlns="http://www.w3.org/2000/svg">
<path d="M21.9333 11.5615C20.615 11.5615 19.4367 12.2032 18.7017 13.1832C17.9667 12.2032 16.7884 11.5615 15.47 11.5615C13.2417 11.5615 11.4333 13.3815 11.4333 15.6215C11.4333 16.4849 11.5733 17.2899 11.8067 18.0249C12.95 21.6532 16.4967 23.8349 18.2467 24.4299C18.4917 24.5115 18.9 24.5115 19.145 24.4299C20.895 23.8349 24.4417 21.6649 25.585 18.0249C25.83 17.2782 25.9584 16.4849 25.9584 15.6215C25.97 13.3815 24.1617 11.5615 21.9333 11.5615Z" fill="white"/>
<path d="M24.2083 9.73003C24.2083 9.99837 23.9399 10.1734 23.6833 10.1034C22.1083 9.69503 20.3816 10.0334 19.0749 10.9667C18.8183 11.1534 18.4683 11.1534 18.2233 10.9667C17.3016 10.29 16.1816 9.9167 15.0033 9.9167C11.9933 9.9167 9.54325 12.3784 9.54325 15.4117C9.54325 18.7017 11.1183 21.1634 12.7049 22.8084C12.7866 22.89 12.7166 23.03 12.6116 22.9834C9.42659 21.8984 2.33325 17.395 2.33325 9.73003C2.33325 6.3467 5.05159 3.6167 8.41159 3.6167C10.4066 3.6167 12.1683 4.57337 13.2766 6.05503C14.3966 4.57337 16.1583 3.6167 18.1416 3.6167C21.4899 3.6167 24.2083 6.3467 24.2083 9.73003Z" fill="white"/>
</svg>
