<svg width="50" height="50" viewBox="0 0 50 50" fill="none" xmlns="http://www.w3.org/2000/svg">
<path d="M25.0001 4.1665C19.5417 4.1665 15.1042 8.604 15.1042 14.0623C15.1042 19.4165 19.2917 23.7498 24.7501 23.9373C24.9167 23.9165 25.0834 23.9165 25.2084 23.9373C25.2501 23.9373 25.2709 23.9373 25.3126 23.9373C25.3334 23.9373 25.3334 23.9373 25.3542 23.9373C30.6876 23.7498 34.8751 19.4165 34.8959 14.0623C34.8959 8.604 30.4584 4.1665 25.0001 4.1665Z" fill="white"/>
<path d="M35.5833 29.479C29.7708 25.604 20.2916 25.604 14.4374 29.479C11.7916 31.2498 10.3333 33.6457 10.3333 36.2082C10.3333 38.7707 11.7916 41.1457 14.4166 42.8957C17.3333 44.854 21.1666 45.8332 24.9999 45.8332C28.8333 45.8332 32.6666 44.854 35.5833 42.8957C38.2083 41.1248 39.6666 38.7498 39.6666 36.1665C39.6458 33.604 38.2083 31.229 35.5833 29.479Z" fill="white"/>
</svg>
