<svg width="136" height="24" viewBox="0 0 136 24" fill="none" xmlns="http://www.w3.org/2000/svg">
<path d="M17.9186 14.32C17.6596 14.571 17.5406 14.934 17.5996 15.29L18.4886 20.21C18.5636 20.627 18.3876 21.049 18.0386 21.29C17.6966 21.54 17.2416 21.57 16.8686 21.37L12.4396 19.06C12.2856 18.978 12.1146 18.934 11.9396 18.929H11.6686C11.5746 18.943 11.4826 18.973 11.3986 19.019L6.96863 21.34C6.74963 21.45 6.50163 21.489 6.25863 21.45C5.66663 21.338 5.27163 20.774 5.36863 20.179L6.25863 15.259C6.31763 14.9 6.19863 14.535 5.93963 14.28L2.32863 10.78C2.02663 10.487 1.92163 10.047 2.05963 9.65C2.19363 9.254 2.53563 8.965 2.94863 8.9L7.91863 8.179C8.29663 8.14 8.62863 7.91 8.79863 7.57L10.9886 3.08C11.0406 2.98 11.1076 2.888 11.1886 2.81L11.2786 2.74C11.3256 2.688 11.3796 2.645 11.4396 2.61L11.5486 2.57L11.7186 2.5H12.1396C12.5156 2.539 12.8466 2.764 13.0196 3.1L15.2386 7.57C15.3986 7.897 15.7096 8.124 16.0686 8.179L21.0386 8.9C21.4586 8.96 21.8096 9.25 21.9486 9.65C22.0796 10.051 21.9666 10.491 21.6586 10.78L17.9186 14.32Z" fill="#FB9825"/>
<path d="M45.9186 14.32C45.6596 14.571 45.5406 14.934 45.5996 15.29L46.4886 20.21C46.5636 20.627 46.3876 21.049 46.0386 21.29C45.6966 21.54 45.2416 21.57 44.8686 21.37L40.4396 19.06C40.2856 18.978 40.1146 18.934 39.9396 18.929H39.6686C39.5746 18.943 39.4826 18.973 39.3986 19.019L34.9686 21.34C34.7496 21.45 34.5016 21.489 34.2586 21.45C33.6666 21.338 33.2716 20.774 33.3686 20.179L34.2586 15.259C34.3176 14.9 34.1986 14.535 33.9396 14.28L30.3286 10.78C30.0266 10.487 29.9216 10.047 30.0596 9.65C30.1936 9.254 30.5356 8.965 30.9486 8.9L35.9186 8.179C36.2966 8.14 36.6286 7.91 36.7986 7.57L38.9886 3.08C39.0406 2.98 39.1076 2.888 39.1886 2.81L39.2786 2.74C39.3256 2.688 39.3796 2.645 39.4396 2.61L39.5486 2.57L39.7186 2.5H40.1396C40.5156 2.539 40.8466 2.764 41.0196 3.1L43.2386 7.57C43.3986 7.897 43.7096 8.124 44.0686 8.179L49.0386 8.9C49.4586 8.96 49.8096 9.25 49.9486 9.65C50.0796 10.051 49.9666 10.491 49.6586 10.78L45.9186 14.32Z" fill="#FB9825"/>
<path d="M73.9186 14.32C73.6596 14.571 73.5406 14.934 73.5996 15.29L74.4886 20.21C74.5636 20.627 74.3876 21.049 74.0386 21.29C73.6966 21.54 73.2416 21.57 72.8686 21.37L68.4396 19.06C68.2856 18.978 68.1146 18.934 67.9396 18.929H67.6686C67.5746 18.943 67.4826 18.973 67.3986 19.019L62.9686 21.34C62.7496 21.45 62.5016 21.489 62.2586 21.45C61.6666 21.338 61.2716 20.774 61.3686 20.179L62.2586 15.259C62.3176 14.9 62.1986 14.535 61.9396 14.28L58.3286 10.78C58.0266 10.487 57.9216 10.047 58.0596 9.65C58.1936 9.254 58.5356 8.965 58.9486 8.9L63.9186 8.179C64.2966 8.14 64.6286 7.91 64.7986 7.57L66.9886 3.08C67.0406 2.98 67.1076 2.888 67.1886 2.81L67.2786 2.74C67.3256 2.688 67.3796 2.645 67.4396 2.61L67.5486 2.57L67.7186 2.5H68.1396C68.5156 2.539 68.8466 2.764 69.0196 3.1L71.2386 7.57C71.3986 7.897 71.7096 8.124 72.0686 8.179L77.0386 8.9C77.4586 8.96 77.8096 9.25 77.9486 9.65C78.0796 10.051 77.9666 10.491 77.6586 10.78L73.9186 14.32Z" fill="#FB9825"/>
<path d="M101.919 14.32C101.66 14.571 101.541 14.934 101.6 15.29L102.489 20.21C102.564 20.627 102.388 21.049 102.039 21.29C101.697 21.54 101.242 21.57 100.869 21.37L96.4396 19.06C96.2856 18.978 96.1146 18.934 95.9396 18.929H95.6686C95.5746 18.943 95.4826 18.973 95.3986 19.019L90.9686 21.34C90.7496 21.45 90.5016 21.489 90.2586 21.45C89.6666 21.338 89.2716 20.774 89.3686 20.179L90.2586 15.259C90.3176 14.9 90.1986 14.535 89.9396 14.28L86.3286 10.78C86.0266 10.487 85.9216 10.047 86.0596 9.65C86.1936 9.254 86.5356 8.965 86.9486 8.9L91.9186 8.179C92.2966 8.14 92.6286 7.91 92.7986 7.57L94.9886 3.08C95.0406 2.98 95.1076 2.888 95.1886 2.81L95.2786 2.74C95.3256 2.688 95.3796 2.645 95.4396 2.61L95.5486 2.57L95.7186 2.5H96.1396C96.5156 2.539 96.8466 2.764 97.0196 3.1L99.2386 7.57C99.3986 7.897 99.7096 8.124 100.069 8.179L105.039 8.9C105.459 8.96 105.81 9.25 105.949 9.65C106.08 10.051 105.967 10.491 105.659 10.78L101.919 14.32Z" fill="#FB9825"/>
<path d="M129.919 14.32C129.66 14.571 129.541 14.934 129.6 15.29L130.489 20.21C130.564 20.627 130.388 21.049 130.039 21.29C129.697 21.54 129.242 21.57 128.869 21.37L124.44 19.06C124.286 18.978 124.115 18.934 123.94 18.929H123.669C123.575 18.943 123.483 18.973 123.399 19.019L118.969 21.34C118.75 21.45 118.502 21.489 118.259 21.45C117.667 21.338 117.272 20.774 117.369 20.179L118.259 15.259C118.318 14.9 118.199 14.535 117.94 14.28L114.329 10.78C114.027 10.487 113.922 10.047 114.06 9.65C114.194 9.254 114.536 8.965 114.949 8.9L119.919 8.179C120.297 8.14 120.629 7.91 120.799 7.57L122.989 3.08C123.041 2.98 123.108 2.888 123.189 2.81L123.279 2.74C123.326 2.688 123.38 2.645 123.44 2.61L123.549 2.57L123.719 2.5H124.14C124.516 2.539 124.847 2.764 125.02 3.1L127.239 7.57C127.399 7.897 127.71 8.124 128.069 8.179L133.039 8.9C133.459 8.96 133.81 9.25 133.949 9.65C134.08 10.051 133.967 10.491 133.659 10.78L129.919 14.32Z" fill="#FB9825"/>
</svg>
