<svg width="28" height="28" viewBox="0 0 28 28" fill="none" xmlns="http://www.w3.org/2000/svg">
<path d="M18.8883 2.3335H9.11159C4.86492 2.3335 2.33325 4.86516 2.33325 9.11183V18.8768C2.33325 23.1352 4.86492 25.6668 9.11159 25.6668H18.8766C23.1233 25.6668 25.6549 23.1352 25.6549 18.8885V9.11183C25.6666 4.86516 23.1349 2.3335 18.8883 2.3335ZM8.90159 21.1752C8.90159 21.6535 8.50492 22.0502 8.02659 22.0502C7.54825 22.0502 7.15159 21.6535 7.15159 21.1752V18.7602C7.15159 18.2818 7.54825 17.8852 8.02659 17.8852C8.50492 17.8852 8.90159 18.2818 8.90159 18.7602V21.1752ZM14.8749 21.1752C14.8749 21.6535 14.4783 22.0502 13.9999 22.0502C13.5216 22.0502 13.1249 21.6535 13.1249 21.1752V16.3335C13.1249 15.8552 13.5216 15.4585 13.9999 15.4585C14.4783 15.4585 14.8749 15.8552 14.8749 16.3335V21.1752ZM20.8483 21.1752C20.8483 21.6535 20.4516 22.0502 19.9733 22.0502C19.4949 22.0502 19.0983 21.6535 19.0983 21.1752V13.9185C19.0983 13.4402 19.4949 13.0435 19.9733 13.0435C20.4516 13.0435 20.8483 13.4402 20.8483 13.9185V21.1752ZM20.8483 10.2318C20.8483 10.7102 20.4516 11.1068 19.9733 11.1068C19.4949 11.1068 19.0983 10.7102 19.0983 10.2318V9.10016C16.1233 12.1568 12.4016 14.3152 8.23659 15.3535C8.16659 15.3768 8.09659 15.3768 8.02659 15.3768C7.62992 15.3768 7.27992 15.1085 7.17492 14.7118C7.05825 14.2452 7.33825 13.7668 7.81659 13.6502C11.7483 12.6702 15.2483 10.6052 18.0249 7.6885H16.5666C16.0883 7.6885 15.6916 7.29183 15.6916 6.8135C15.6916 6.33516 16.0883 5.9385 16.5666 5.9385H19.9849C20.0316 5.9385 20.0666 5.96183 20.1133 5.96183C20.1716 5.9735 20.2299 5.9735 20.2883 5.99683C20.3466 6.02016 20.3933 6.05516 20.4516 6.09016C20.4866 6.1135 20.5216 6.12516 20.5566 6.1485C20.5683 6.16016 20.5683 6.17183 20.5799 6.17183C20.6266 6.2185 20.6616 6.26516 20.6966 6.31183C20.7316 6.3585 20.7666 6.3935 20.7783 6.44016C20.8016 6.48683 20.8016 6.5335 20.8133 6.59183C20.8249 6.65016 20.8483 6.7085 20.8483 6.7785C20.8483 6.79016 20.8599 6.80183 20.8599 6.8135V10.2318H20.8483Z" fill="white"/>
</svg>
